<svg xmlns="http://www.w3.org/2000/svg"><symbol id="mecha-stilts" viewBox="0 0 256 256"><path d="M159 160.1h11.5v11.34H159zm-36.8 0h11.5v11.34h-11.5zm-21.6 0h18v11.34h-18zm36.8 0h18v11.34h-18zm-9.4-75c-21.1 0-38.7 12.7-39.6 36h79.2c-.9-23.3-18.5-36-39.6-36z"/><path d="M128 18.7L33.1 73.5V183l94.9 54.8 94.9-54.8V73.5zm56.9 139.6a1.7 1.7 0 0 1-1.8 1.8h-9v11.3h9a1.8 1.8 0 1 1 0 3.6H72.9a1.8 1.8 0 0 1 0-3.6h9v-11.3h-9a1.7 1.7 0 0 1-1.8-1.8v-35.4a1.7 1.7 0 0 1 1.8-1.8h11.9c.9-25.6 20-39.6 43.2-39.6s42.3 14 43.2 39.6h11.9a1.7 1.7 0 0 1 1.8 1.8z"/><path d="M85.5 160.1H97v11.34H85.5zm-10.8-3.6h106.6v-31.8H74.7zm52.4-12.2H171a1.8 1.8 0 1 1 0 3.6h-43.9a1.8 1.8 0 1 1 0-3.6z"/></symbol><symbol id="super-domes" viewBox="0 0 256 256"><path d="M147.5 146.9h36.7v19.98h-36.7zm-11.7 0h8.1v19.98h-8.1zm-52 0h48.4v19.98H83.8zm48.4-17.1V93.5l-25.9 36.3h25.9zm3.6-40.1v40.1h49.7a53.6 53.6 0 0 0-49.7-40.1zm-5.4.2c-23 1.4-42.3 18.2-47.9 39.9h19.3zm-56.9 43.5h121v9.9h-121z"/><path d="M39.1 73.5V183l94.9 54.8 94.9-54.8V73.5L134 18.7zm95.4 12.6a57 57 0 0 1 54.8 43.7h7a1.7 1.7 0 0 1 1.8 1.8v11.7h13.5a1.8 1.8 0 1 1 0 3.6h-23.8v21.8a1.7 1.7 0 0 1-1.8 1.8H82a1.7 1.7 0 0 1-1.8-1.8v-21.8H56.4a1.8 1.8 0 1 1 0-3.6h13.5v-11.7a1.7 1.7 0 0 1 1.8-1.8h7a57.2 57.2 0 0 1 55.1-43.7c.2-.2.4-.2.7 0z"/></symbol><symbol id="space-bubbles" viewBox="0 0 256 256"><path d="M139.2 169.6h24.4l-17.1-9-7.3 9zm-47-34.8h73.6a44.7 44.7 0 0 0 2.2-13.7 38.9 38.9 0 0 0-38.9-38.8c-21.4 0-39.1 17.4-39.1 38.8 0 4.7.4 9.6 2.2 13.7z"/><path d="M33.1 73.5V183l94.9 54.8 94.9-54.8V73.5L128 18.7zm138.5 47.6a45.4 45.4 0 0 1-2 13.7H180a1.7 1.7 0 0 1 1.8 1.8v13a1.7 1.7 0 0 1-1.8 1.8h-9.2l14.8 17.6a2 2 0 0 1 0 2.2l-4.1 5.9a2.2 2.2 0 0 1-2.4.6l-8.6-4.5H85.3l-8.6 4.5a2 2 0 0 1-2.3-.6l-4.2-5.9a2.2 2.2 0 0 1 .2-2.2l14.9-17.6H78a1.7 1.7 0 0 1-1.8-1.8v-13a1.7 1.7 0 0 1 1.8-1.8h10.4a48.8 48.8 0 0 1-2-13.7 42.7 42.7 0 0 1 42.7-42.4c23.2 0 42.5 19.2 42.5 42.4z"/><path d="M154.3 151.4l-5.4 6.3 30.6 16 2.5-3.4-15.8-18.9h-11.9zm-61.9 18.2h24.4l-7.3-9-17.1 9zm9.3-18.2H89.8L74 170.1l2.5 3.6 30.4-16-5.2-6.3zm4.7 0l15.1 18.2h13l15.1-18.2h-43.2zm-26.6-13h98.5v9.36H79.8z"/></symbol></svg>