<svg xmlns="http://www.w3.org/2000/svg"><symbol id="mecha-stilts" viewBox="0 0 256 256"><path d="M131 22.1l94.9 54.8v109.6L131 241.3l-94.9-54.8V76.9L131 22.1z"/><path fill="#fff" d="M79 172.2a1.7 1.7 0 0 1-1.8-1.8v-21.8H53.4a1.8 1.8 0 0 1 0-3.6h13.5v-11.7a1.7 1.7 0 0 1 1.8-1.8h7a57.3 57.3 0 0 1 55.1-43.8.8.8 0 0 1 .7 0 57 57 0 0 1 54.8 43.8h7a1.7 1.7 0 0 1 1.8 1.8V145h13.5a1.8 1.8 0 1 1 0 3.6h-23.8v21.8a1.7 1.7 0 0 1-1.8 1.8zm-8.5-37.1v9.9h121v-9.9zm56.9-43.6c-23 1.5-42.3 18.2-47.9 40h19.3zm-46.6 57.1v20h48.4v-20zm48.4-53.5l-25.9 36.4h25.9zm3.6-3.8v40.2h49.7a53.7 53.7 0 0 0-49.7-40.2zm0 57.3v20h8.1v-20zm11.7 0v20h36.7v-20z"/></symbol><symbol id="space-bubbles" viewBox="0 0 256 256"><path d="M128 22.1l94.9 54.8v109.6L128 241.3l-94.9-54.8V76.9L128 22.1z"/><path fill="#fff" d="M74.4 176.1l-4.2-5.9a2.2 2.2 0 0 1 .2-2.2l14.9-17.6H78a1.7 1.7 0 0 1-1.8-1.8v-13a1.7 1.7 0 0 1 1.8-1.8h10.4a48.8 48.8 0 0 1-2-13.7 42.7 42.7 0 0 1 42.7-42.4c23.2 0 42.5 19.2 42.5 42.4a45.4 45.4 0 0 1-2 13.7H180a1.7 1.7 0 0 1 1.8 1.8v13a1.7 1.7 0 0 1-1.8 1.8h-9.2l14.8 17.6a2 2 0 0 1 0 2.2l-4.1 5.9a2.2 2.2 0 0 1-2.4.6l-8.6-4.5H85.3l-8.6 4.5a2 2 0 0 1-2.3-.6zm27.3-25.7H89.8L74 169.1l2.5 3.6 30.4-16zm-21.9-13v9.4h98.4v-9.4zm12.4-3.6h73.6a44.7 44.7 0 0 0 2.2-13.7 38.9 38.9 0 0 0-38.9-38.8c-21.4 0-39.1 17.4-39.1 38.8 0 4.7.4 9.6 2.2 13.7zm17.3 25.8l-17.1 9h24.4zm-3.1-9.2l15.1 18.2h13l15.1-18.2zm40.1 9.2l-7.3 9h24.4zm19.7-9.2h-11.9l-5.4 6.3 30.6 16 2.5-3.4z"/></symbol><symbol id="super-domes" viewBox="0 0 256 256"><path d="M134 22.1l94.9 54.8v109.6L134 241.3l-94.9-54.8V76.9L134 22.1z"/><path fill="#fff" d="M78.9 172.2a1.8 1.8 0 1 1 0-3.6h9v-11.4h-9a1.7 1.7 0 0 1-1.8-1.8V120a1.7 1.7 0 0 1 1.8-1.8h11.9c.9-25.6 20-39.6 43.2-39.6s42.3 14 43.2 39.6h11.9a1.7 1.7 0 0 1 1.8 1.8v35.4a1.7 1.7 0 0 1-1.8 1.8h-9v11.4h9a1.8 1.8 0 1 1 0 3.6zm1.8-50.4v31.8h106.6v-31.8zm10.8 35.4v11.4H103v-11.4zm2.9-39h79.2c-.9-23.3-18.5-36-39.6-36s-38.7 12.7-39.6 36zm12.2 39v11.4h18v-11.4zm21.6 0v11.4h11.6v-11.4zM177 145h-43.9a1.8 1.8 0 1 1 0-3.6H177a1.8 1.8 0 1 1 0 3.6zm-33.6 12.2v11.4h18v-11.4zm21.6 0v11.4h11.5v-11.4z"/></symbol></svg>