<svg xmlns="http://www.w3.org/2000/svg" id="Layer_1" width="256" height="256" viewBox="0 0 256 256"><path d="M159 160.1h11.5v11.34H159zm-36.8 0h11.5v11.34h-11.5zm-21.6 0h18v11.34h-18zm36.8 0h18v11.34h-18zm-9.4-75c-21.1 0-38.7 12.7-39.6 36h79.2c-.9-23.3-18.5-36-39.6-36z"/><path d="M128 18.7L33.1 73.5V183l94.9 54.8 94.9-54.8V73.5zm56.9 139.6a1.7 1.7 0 0 1-1.8 1.8h-9v11.3h9a1.8 1.8 0 1 1 0 3.6H72.9a1.8 1.8 0 0 1 0-3.6h9v-11.3h-9a1.7 1.7 0 0 1-1.8-1.8v-35.4a1.7 1.7 0 0 1 1.8-1.8h11.9c.9-25.6 20-39.6 43.2-39.6s42.3 14 43.2 39.6h11.9a1.7 1.7 0 0 1 1.8 1.8z"/><path d="M85.5 160.1H97v11.34H85.5zm-10.8-3.6h106.6v-31.8H74.7zm52.4-12.2H171a1.8 1.8 0 1 1 0 3.6h-43.9a1.8 1.8 0 1 1 0-3.6z"/></svg>