<svg xmlns="http://www.w3.org/2000/svg" id="Layer_1" width="256" height="256" viewBox="0 0 256 256"><path d="M139.2 169.6h24.4l-17.1-9-7.3 9zm-47-34.8h73.6a44.7 44.7 0 0 0 2.2-13.7 38.9 38.9 0 0 0-38.9-38.8c-21.4 0-39.1 17.4-39.1 38.8 0 4.7.4 9.6 2.2 13.7z"/><path d="M33.1 73.5V183l94.9 54.8 94.9-54.8V73.5L128 18.7zm138.5 47.6a45.4 45.4 0 0 1-2 13.7H180a1.7 1.7 0 0 1 1.8 1.8v13a1.7 1.7 0 0 1-1.8 1.8h-9.2l14.8 17.6a2 2 0 0 1 0 2.2l-4.1 5.9a2.2 2.2 0 0 1-2.4.6l-8.6-4.5H85.3l-8.6 4.5a2 2 0 0 1-2.3-.6l-4.2-5.9a2.2 2.2 0 0 1 .2-2.2l14.9-17.6H78a1.7 1.7 0 0 1-1.8-1.8v-13a1.7 1.7 0 0 1 1.8-1.8h10.4a48.8 48.8 0 0 1-2-13.7 42.7 42.7 0 0 1 42.7-42.4c23.2 0 42.5 19.2 42.5 42.4z"/><path d="M154.3 151.4l-5.4 6.3 30.6 16 2.5-3.4-15.8-18.9h-11.9zm-61.9 18.2h24.4l-7.3-9-17.1 9zm9.3-18.2H89.8L74 170.1l2.5 3.6 30.4-16-5.2-6.3zm4.7 0l15.1 18.2h13l15.1-18.2h-43.2zm-26.6-13h98.5v9.36H79.8z"/></svg>