<svg xmlns="http://www.w3.org/2000/svg" id="Layer_1" width="256" height="256" viewBox="0 0 256 256"><path d="M147.5 146.9h36.7v19.98h-36.7zm-11.7 0h8.1v19.98h-8.1zm-52 0h48.4v19.98H83.8zm48.4-17.1V93.5l-25.9 36.3h25.9zm3.6-40.1v40.1h49.7a53.6 53.6 0 0 0-49.7-40.1zm-5.4.2c-23 1.4-42.3 18.2-47.9 39.9h19.3zm-56.9 43.5h121v9.9h-121z"/><path d="M39.1 73.5V183l94.9 54.8 94.9-54.8V73.5L134 18.7zm95.4 12.6a57 57 0 0 1 54.8 43.7h7a1.7 1.7 0 0 1 1.8 1.8v11.7h13.5a1.8 1.8 0 1 1 0 3.6h-23.8v21.8a1.7 1.7 0 0 1-1.8 1.8H82a1.7 1.7 0 0 1-1.8-1.8v-21.8H56.4a1.8 1.8 0 1 1 0-3.6h13.5v-11.7a1.7 1.7 0 0 1 1.8-1.8h7a57.2 57.2 0 0 1 55.1-43.7c.2-.2.4-.2.7 0z"/></svg>